<svg xmlns="http://www.w3.org/2000/svg" viewBox="0 0 24 24" fill="none" stroke="currentColor">
  <path stroke-linecap="round" stroke-linejoin="round" stroke-width="1.5" d="M21 11.5a8.38 8.38 0 0 1-1.93 5.14L21 21l-4.36-1.1A8.5 8.5 0 1 1 21 11.5z"/>
  <path stroke-linecap="round" stroke-linejoin="round" stroke-width="1.5" d="M17 14.5c-.25-.12-1.49-.73-1.72-.81-.23-.08-.4-.12-.57.12s-.65.81-.8.98c-.15.18-.3.2-.55.07a6.46 6.46 0 0 1-1.93-1.19 7.24 7.24 0 0 1-1.33-1.62c-.14-.25 0-.38.11-.5.12-.12.27-.31.4-.46.13-.15.17-.25.25-.42.08-.17.04-.31-.02-.43-.07-.12-.57-1.37-.78-1.88-.2-.5-.4-.44-.55-.45s-.31-.01-.48-.01c-.17 0-.44.06-.66.31-.22.25-.84.82-.84 2s.86 2.33 1 2.5c.18.2 1.63 2.49 3.95 3.49 1.34.55 1.9.6 2.58.5.41-.06 1.26-.51 1.44-1.01.18-.5.18-.93.13-1.01-.05-.08-.23-.12-.48-.24z"/>
</svg>